<?xml version="1.0" standalone="no"?>
<!DOCTYPE svg PUBLIC "-//W3C//DTD SVG 20010904//EN"
 "http://www.w3.org/TR/2001/REC-SVG-20010904/DTD/svg10.dtd">
<svg version="1.0" xmlns="http://www.w3.org/2000/svg"
 width="400.000000pt" height="400.000000pt" viewBox="0 0 400.000000 400.000000"
 preserveAspectRatio="xMidYMid meet">

<g transform="translate(0.000000,400.000000) scale(0.100000,-0.100000)"
fill="#000000" stroke="none">
<path d="M810 2878 c-256 -211 -404 -442 -456 -716 -18 -96 -18 -322 1 -437
14 -88 53 -242 74 -297 l11 -28 114 0 115 0 -54 113 c-111 230 -150 401 -142
617 4 107 10 154 31 223 51 171 151 337 297 490 50 54 89 97 87 97 -1 0 -37
-28 -78 -62z"/>
<path d="M1086 2860 c-83 -42 -126 -110 -126 -200 0 -207 249 -296 384 -138
120 140 15 359 -171 358 -27 -1 -65 -9 -87 -20z"/>
<path d="M681 2553 c-65 -110 -93 -209 -99 -342 -5 -129 7 -213 48 -342 50
-152 132 -290 239 -401 l64 -68 191 1 191 1 -55 18 c-138 44 -250 112 -363
220 -266 252 -338 597 -193 924 14 31 23 56 21 56 -2 0 -22 -30 -44 -67z"/>
<path d="M2379 2447 c-48 -32 -68 -91 -48 -143 18 -46 69 -84 114 -84 38 0 94
35 113 70 7 15 11 44 8 70 -3 35 -11 51 -40 77 -44 41 -96 44 -147 10z"/>
<path d="M2915 2459 c-79 -11 -162 -72 -200 -148 -10 -19 -19 -69 -22 -113
l-6 -78 -38 0 -39 0 0 -86 0 -86 40 4 40 4 0 -278 0 -278 115 0 115 0 0 278
c0 259 1 279 18 279 9 -1 34 0 55 1 l37 2 0 80 0 80 -55 0 -55 0 0 54 c0 43 5
61 24 83 21 24 32 28 95 31 l71 4 0 84 c0 80 -1 84 -22 85 -90 4 -138 3 -173
-2z"/>
<path d="M751 2338 c-1 -76 19 -196 45 -270 63 -175 179 -302 352 -388 69 -34
184 -70 223 -70 28 0 29 1 29 53 l0 54 -112 22 c-301 59 -443 213 -518 561
-17 78 -19 81 -19 38z"/>
<path d="M1870 2183 c-74 -86 -150 -174 -168 -195 l-34 -38 66 0 66 0 0 -168
c0 -196 12 -252 66 -312 21 -23 53 -45 81 -54 55 -19 189 -21 262 -4 l51 11 0
89 0 88 -32 -20 c-25 -15 -51 -20 -105 -20 -113 0 -113 0 -113 214 0 149 2
175 16 180 9 3 65 6 125 6 l110 0 -3 78 -3 77 -122 3 -122 3 -3 109 -3 110
-135 -157z"/>
<path d="M2340 1760 l0 -360 110 0 110 0 0 360 0 360 -110 0 -110 0 0 -360z"/>
<path d="M3080 1760 l0 -360 114 0 114 0 4 188 c3 184 3 188 31 234 53 91 146
122 242 82 20 -8 39 -14 41 -12 2 2 11 39 20 81 17 77 17 77 -5 101 -33 35
-97 50 -151 36 -44 -12 -73 -36 -142 -120 l-37 -45 -1 88 0 87 -115 0 -115 0
0 -360z"/>
</g>
</svg>
