<?xml version="1.0" standalone="no"?>
<!DOCTYPE svg PUBLIC "-//W3C//DTD SVG 20010904//EN"
 "http://www.w3.org/TR/2001/REC-SVG-20010904/DTD/svg10.dtd">
<svg version="1.0" xmlns="http://www.w3.org/2000/svg"
 width="720.000000pt" height="720.000000pt" viewBox="0 0 720.000000 720.000000"
 preserveAspectRatio="xMidYMid meet">

<g transform="translate(0.000000,720.000000) scale(0.100000,-0.100000)"
fill="#000000" stroke="none">
<path d="M3590 4393 c-190 -32 -341 -126 -399 -248 -53 -114 -55 -274 -3 -387
58 -128 151 -205 417 -343 83 -43 173 -93 202 -112 104 -68 162 -158 163 -248
0 -103 -40 -175 -123 -221 -46 -26 -62 -29 -137 -29 -72 0 -94 4 -144 28 -124
58 -217 151 -353 355 -52 77 -79 110 -86 103 -9 -9 13 -234 40 -414 7 -45 26
-55 173 -93 198 -51 416 -52 578 -3 168 52 277 159 318 311 18 70 18 209 -1
283 -48 182 -159 284 -502 459 -238 121 -313 194 -313 304 0 121 90 205 221
206 136 0 272 -102 414 -312 62 -93 95 -123 95 -89 0 6 -12 101 -27 210 l-27
198 -51 14 c-88 25 -177 35 -305 34 -69 -1 -136 -4 -150 -6z"/>
</g>
</svg>
